<?xml version="1.0" encoding="UTF-8" standalone="no"?>
<!-- Creator: CorelDRAW 2018 (64-Bit Evaluation Version) -->

<svg
   xml:space="preserve"
   width="120"
   height="40"
   version="1.1"
   style="clip-rule:evenodd;fill-rule:evenodd;image-rendering:optimizeQuality;shape-rendering:geometricPrecision;text-rendering:geometricPrecision"
   viewBox="0 0 3174.9999 1058.3334"
   id="svg906"
   sodipodi:docname="logo-precious.svg"
   inkscape:version="1.1.2 (0a00cf5339, 2022-02-04, custom)"
   xmlns:inkscape="http://www.inkscape.org/namespaces/inkscape"
   xmlns:sodipodi="http://sodipodi.sourceforge.net/DTD/sodipodi-0.dtd"
   xmlns="http://www.w3.org/2000/svg"
   xmlns:svg="http://www.w3.org/2000/svg"><sodipodi:namedview
   id="namedview908"
   pagecolor="#ffffff"
   bordercolor="#666666"
   borderopacity="1.0"
   inkscape:pageshadow="2"
   inkscape:pageopacity="0.0"
   inkscape:pagecheckerboard="0"
   inkscape:document-units="mm"
   showgrid="false"
   units="px"
   inkscape:zoom="2.8529132"
   inkscape:cx="70.980077"
   inkscape:cy="46.619013"
   inkscape:window-width="1920"
   inkscape:window-height="1017"
   inkscape:window-x="-8"
   inkscape:window-y="-8"
   inkscape:window-maximized="1"
   inkscape:current-layer="Layer_x0020_1" />
 <defs
   id="defs869">
  <style
   type="text/css"
   id="style867">
   <![CDATA[
    .str0 {stroke:#2B2A29;stroke-width:20;stroke-miterlimit:22.9256}
    .fil0 {fill:none}
    .fil1 {fill:#D9DADA;fill-rule:nonzero}
    .fil2 {fill:#E31E24;fill-rule:nonzero}
   ]]>
  </style>
 </defs>
 <g
   id="Layer_x0020_1"
   inkscape:label="Layer 1"
   inkscape:groupmode="layer">
  <metadata
   id="CorelCorpID_0Corel-Layer" />
  
  <g
   id="_796197936"
   transform="matrix(0.09806934,0,0,0.09806934,132.66611,-503.77882)">
   <path
   class="fil1"
   d="m 16118.87,5410.82 c 230.37,1.77 460.73,1.42 691.45,0 -2.82,207.79 -1.06,415.58 -1.06,623.72 -230.01,0.7 -460.02,-2.12 -689.68,1.76 1.41,-208.49 1.76,-416.98 -0.71,-625.48 z"
   id="path874" />
   <path
   class="fil1"
   d="m 3079.5,5684.23 c 505.53,1.06 1011.06,0.7 1516.95,0.35 774.59,-3.96 1291.16,608.77 1258.36,1362.78 29.05,822.55 -353.43,1472.18 -1257.66,1487.31 -520.34,1.41 -1040.34,0.35 -1560.69,0 1.41,-229.3 1.77,-458.26 1.41,-687.56 496.72,3.53 993.43,0.35 1489.79,2.11 468.36,18.04 635.85,-282.46 642.4,-697.08 4.62,-467.09 -127.99,-782.47 -643.11,-782.47 -470.61,1.06 -941.21,-0.35 -1411.82,0.36 -289.97,10.47 -345.7,69.06 -346.78,356.3 1.41,909.82 -1.41,1819.98 1.77,2730.15 -229.66,-0.35 -459.32,3.53 -688.98,0.35 1.77,-944.03 0,-1888.06 0.71,-2832.1 -14.26,-564.36 451.75,-942.35 997.65,-940.5 z"
   id="path876" />
   <path
   class="fil1"
   d="m 6406.55,7158.49 c 149.22,-350.31 535.52,-549.28 905.23,-547.52 507.29,1.06 1014.59,-0.35 1521.88,1.06 4.59,229.31 3.18,458.97 1.41,688.63 -529.16,4.58 -1058.68,-5.65 -1587.85,4.58 -142.52,-3.53 -244.12,134.41 -232.13,269.52 -0.7,627.59 -1.76,1255.19 0.71,1882.78 -228.6,-1.77 -457.2,1.06 -685.8,0 -1.41,-569.03 0,-1138.06 -0.71,-1706.74 -1.76,-199.32 -8.11,-406.75 77.26,-592.31 z"
   id="path878" />
   <path
   class="fil1"
   d="m 10136.47,6612.03 c 399.34,-1.76 798.69,0.36 1198.03,-1.06 567.22,-2.2 1014.19,375.85 998.07,960.21 -13.6,492.39 -382.74,928.92 -890.12,928.92 -429.68,1.76 -859.36,-0.35 -1289.05,0.71 -3.17,-217.67 -2.47,-435.69 -2.11,-653.35 429.33,0 859.01,5.65 1288.34,-2.12 221.9,-15.52 315.74,-324.2 176.74,-481.89 -64.2,-63.5 -153.1,-101.95 -243.77,-96.31 -401.81,-0.7 -803.27,0 -1205.09,-0.7 -262.29,-11.19 -297.78,173.63 -303.39,377.12 1.77,295.62 0,590.9 0.71,886.53 -4.23,143.22 121,283.28 269.17,271.28 416.98,2.82 834.32,1.06 1251.3,0.71 2.47,218.72 1.77,437.79 1.41,656.52 -405.69,-2.47 -811.39,-1.06 -1217.08,-0.71 -567.34,19.34 -965.77,-410.17 -960.26,-963.44 1.06,-306.91 0.35,-613.83 0.35,-920.74 8.56,-540.85 374.33,-959.94 926.75,-961.68 z"
   id="path880" />
   <path
   class="fil1"
   d="m 13841.69,6611.33 c 568.68,-0.36 1137.36,1.76 1706.04,-1.06 2.82,230.36 -1.06,461.08 2.47,691.44 -534.46,-0.7 -1069.27,-0.35 -1603.73,-0.35 -261.94,3.55 -543.21,-56.88 -519.64,306.56 3.17,317.5 -5.29,635.36 4.58,952.86 1.41,123.12 112.54,208.84 229.66,213.08 629.71,9.17 1260.12,-10.59 1889.83,6.7 -4.58,226.48 -0.7,452.96 -2.11,679.45 -511.53,-5.65 -1023.41,-1.06 -1535.29,-2.82 -228.6,-3.53 -466.38,23.63 -684.39,-62.8 -330.2,-118.88 -576.44,-442.38 -590.2,-794.81 -8.11,-341.49 -2.82,-683.33 -3.88,-1024.46 1.31,-679.02 492.96,-976.85 1106.66,-963.79 z"
   id="path882" />
   <path
   class="fil1"
   d="m 16120.29,6611.33 c 229.65,0 459.31,0.35 689.32,-0.36 -0.7,948.98 -2.11,1898.3 0.36,2847.27 -230.02,-1.05 -459.67,-2.11 -689.68,0.36 0.7,-949.33 1.05,-1898.3 0,-2847.27 z"
   id="path884" />
   <g
   id="g888">
    <path
   class="fil1"
   d="m 18674.75,6611.33 c 317.15,0.7 634.29,-1.06 951.44,0.7 587.43,8.87 944.14,462.14 931.33,1032.23 -3.52,317.85 5.3,636.06 -4.23,953.91 -19.05,330.55 -226.83,645.58 -535.87,772.23 -122.77,55.39 -256.47,87.84 -391.58,86.79 -423.34,0.7 -846.32,-0.71 -1269.3,0.7 -338.66,5.29 -680.86,-176.39 -842.78,-478.01 -151.34,-277.64 -108.66,-607.49 -116.07,-911.58 24.35,-270.93 -28.92,-547.51 46.92,-813.51 194.53,-606.97 706.91,-638.75 1230.14,-643.46 z m -379.94,696.03 c -117.71,11.28 -208.49,119.87 -206.38,236.71 -2.47,328.09 -1.76,656.17 -0.35,984.25 -3.17,125.59 105.48,240.24 232.13,240.95 387.35,25.4 776.11,-9.53 1164.16,10.23 107.95,-1.06 234.6,6 318.92,-74.44 56.44,-53.27 58.56,-137.58 63.14,-209.9 2.12,-271.29 -1.06,-542.57 1.06,-813.86 0,-361.04 -69.16,-381.66 -419.1,-380.64 -384.53,5.99 -769.76,-8.47 -1153.58,6.7 z"
   id="path886" />
   </g>
   <path
   class="fil1"
   d="m 21096.57,6610.27 c 229.3,2.12 458.26,0 687.56,2.12 -2.47,533.04 -1.06,1066.09 -0.7,1599.49 -9.06,462.46 392.6,574.02 771.17,565.15 336.2,-18.7 672.75,17.29 1008.94,-9.17 -3.52,-718.96 -2.47,-1437.92 -0.7,-2157.24 230.01,2.47 459.67,0.71 689.68,0 0,827.27 1.06,1654.53 0,2481.79 9.17,179.92 -132.29,373.95 -323.85,365.13 -458.61,0 -917.58,-0.71 -1376.19,0 -165.8,-0.71 -334.08,9.17 -496,-31.75 -320.32,-78.67 -621.95,-270.94 -791.64,-558.8 -105.48,-189.09 -169.68,-403.93 -167.57,-621.6 -2.82,-545.04 -1.76,-1090.08 -0.7,-1635.12 z"
   id="path890" />
   <path
   class="fil1"
   d="m 25105.89,6775.72 c 148.87,-107.6 333.73,-161.22 516.11,-164.39 559.16,-1.06 1118.31,2.82 1677.11,-2.12 0.7,231.07 0.35,461.79 0.35,692.86 -535.87,-1.41 -1071.39,0 -1606.9,-1.41 -59.62,2.11 -121.71,-3.18 -177.45,20.81 -58.91,50.45 -52.56,140.4 -9.52,199.32 83.25,25.75 172.5,12.35 258.93,15.52 317.15,1.06 634.3,-4.94 951.45,2.47 197.9,4.59 396.52,64.21 554.56,185.91 439.92,334.08 500.59,1070.68 101.6,1459.8 -174.27,167.22 -413.81,270.58 -656.16,272.7 -630.77,1.41 -1261.18,-2.12 -1891.95,1.76 -2.12,-227.19 -3.53,-454.38 0,-681.21 512.59,-0.71 1025.17,-11.65 1537.76,-6.35 153.1,4.58 312.21,20.1 461.08,-25.4 209.2,-110.42 158.4,-506.24 -95.96,-515.77 -403.58,-13.75 -807.86,5.65 -1211.44,-9.17 -298.45,-15.87 -579.96,-219.78 -675.92,-504.82 -128.06,-325.26 -26.81,-738.72 266.35,-940.51 z"
   id="path892" />
   <g
   id="g902">
    <path
   class="fil2"
   d="m 20894.07,10844.66 c 210.52,-321.01 814.33,-109.77 768.71,293.51 -1.77,1465.44 2.11,2930.53 -1.77,4395.97 -286.81,2.82 -573.61,1.76 -860.42,-0.36 9.17,-313.26 -20.11,-625.47 -16.23,-938.03 13.41,-234.95 6.7,-470.96 6,-706.26 25.75,-211.67 -10.23,-423.34 -4.24,-635 -6.7,-176.04 -6.7,-352.08 -15.87,-527.41 -494.24,883.01 -993.42,1763.54 -1499.66,2640.19 -157.33,317.77 -584.34,329.05 -764.47,26.11 -358.77,-625.48 -719.31,-1249.89 -1068.56,-1880.66 -139.35,-214.84 -256.82,-442.03 -377.83,-667.46 -24.69,-2.11 -73.37,-6.7 -98.07,-8.82 -4.59,907 7.41,1813.99 -5.64,2720.63 -279.76,-0.71 -559.51,-4.24 -838.91,1.05 -12.7,-97.01 -27.16,-194.02 -27.16,-291.74 -0.36,-1328.56 1.41,-2657.12 -0.71,-3986.04 5.65,-134.05 8.47,-276.22 73.73,-396.87 209.37,-248.73 567.89,-279.42 738.01,12.34 447.33,763.06 883.01,1533.18 1324.68,2300.11 204.97,365.48 428.63,720.02 619.13,1093.62 11.29,4.23 34.22,12.7 45.86,16.58 549.98,-952.86 1098.9,-1906.77 1646.41,-2861.38 116.77,-201.44 220.84,-410.64 357.01,-600.08 z"
   id="path894" />
    <g
   id="g898">
     <path
   class="fil2"
   d="m 22883.39,10810.79 c 88.55,-61.03 201.43,-61.38 304.45,-68.44 753.53,-1.41 1507.06,-2.11 2260.6,0 530.57,27.87 1081.26,204.26 1449.56,603.96 292.1,294.92 462.84,690.74 534.46,1095.73 25.75,257.53 8.46,517.17 13.05,775.76 -4.94,257.88 17.64,520.34 -42.33,774.34 -74.79,357.72 -239.89,705.56 -507.65,959.21 -317.5,343.95 -778.23,537.28 -1239.31,579.61 -907.34,6 -1815.39,9.53 -2723.09,-2.47 -218.8,-11.15 -260.19,-263.53 -264.23,-439.56 1.41,-1305.63 -0.35,-2610.91 1.06,-3916.54 -12.35,-153.46 97.36,-277.28 213.43,-361.6 z m 638.88,833.26 v 0 c 8.11,1003.66 8.82,2008.37 -0.35,3012.02 204.96,34.22 413.45,17.29 620.18,20.46 446.97,-0.7 893.94,2.12 1340.91,-1.06 353.48,-9.52 714.37,-166.51 909.11,-471.31 206.72,-297.04 194.38,-676.27 193.32,-1021.99 7.05,-242.72 -10.58,-485.07 -40.22,-725.67 -49.39,-227.89 -179.21,-439.91 -360.54,-587.02 -213.07,-182.03 -500.59,-248 -774.7,-247.65 -399.34,1.76 -798.69,0.35 -1197.68,0.71 -230.36,1.41 -461.43,-11.65 -690.03,21.51 z"
   id="path896" />
    </g>
    <path
   class="fil2"
   d="m 13796.65,10576.19 191.37,330.51 191.36,330.5 -190.54,330.99 -190.55,331 -381.92,0.48 -381.92,0.46 -191.37,-330.51 -32.02,-55.31 c -106.59,-5.55 -213.17,-6.21 -319.45,-4.31 -99.13,124.18 -197.55,249.77 -306.21,365.83 2.47,110.07 87.84,185.91 153.81,264.23 154.52,177.1 301.63,360.89 440.98,549.98 27.87,32.1 56.09,77.97 104.77,77.97 217.66,10.58 436.03,0 654.05,7.05 l 15.86,-23.03 17.14,-29.78 190.55,-331 381.92,-0.48 381.92,-0.46 191.37,330.51 191.36,330.5 -190.54,330.99 -190.55,331 -381.92,0.48 -381.92,0.46 -191.37,-330.51 -26.21,-45.27 c -371.81,-27.46 -744.6,7 -1116.04,-16.6 -354.19,7.05 -708.02,-0.71 -1062.21,-2.12 -246.95,19.75 -495.65,-18.7 -741.19,25.4 365.83,393.35 685.1,827.62 1029.41,1240.01 385.45,8.59 770.92,4.13 1156.38,0.31 l 36.12,-62.74 190.55,-331 381.92,-0.48 381.92,-0.46 191.37,330.51 191.36,330.5 -190.54,330.99 -190.55,331 -381.92,0.48 -381.92,0.46 -186.88,-322.75 c -11,-12.55 -22.75,-24.48 -35.41,-35.67 -472.72,-18.7 -946.85,6 -1419.93,-11.99 -117.83,-146.05 -243.06,-285.75 -363.01,-429.69 -26.81,-43.04 -80.43,-32.45 -122.06,-38.8 -91.37,176.74 -254.7,299.15 -357.72,468.13 -199.67,18.7 -401.1,-7.76 -599.72,14.82 -62.25,51.78 -103.83,120.61 -142.2,191.63 v -12.46 l -101.23,175.84 -381.92,0.48 -381.92,0.46 -191.37,-330.51 -191.36,-330.5 190.54,-330.99 190.55,-331 381.92,-0.48 381.92,-0.46 191.37,330.51 35.03,60.5 c 117.43,10.02 240.41,18.42 355.22,-9.34 101.6,-111.47 184.86,-238.12 283.64,-351.72 -0.71,-30.34 -1.42,-59.97 -1.77,-89.6 -110.42,-117.83 -213.43,-242.01 -313.97,-368.3 -110.77,-142.17 -241.3,-269.17 -333.73,-425.1 -230.92,-8.8 -462.49,-4.6 -693.47,-0.2 l -25.77,44.77 -190.55,331 -381.92,0.48 -381.92,0.46 -191.37,-330.51 -191.36,-330.5 190.54,-330.99 190.55,-331 381.92,-0.48 381.92,-0.46 191.37,330.51 30.92,53.41 c 898.82,-4.72 1797.98,-0.25 2696.45,-2.34 65.61,-2.47 130.17,-15.17 195.44,-24.35 -357.37,-397.58 -685.1,-821.62 -1021.65,-1236.48 -385.93,-0.7 -772.21,-2.06 -1158.48,0.53 l -32.58,56.6 -190.55,331 -381.92,0.48 -381.92,0.46 -191.37,-330.51 -191.36,-330.5 190.54,-330.99 190.55,-331 381.92,-0.48 381.92,-0.46 191.37,330.51 20.56,35.5 c 467.49,5.91 935.62,-7.1 1402.39,6.18 194.38,127 273.05,394.05 484.37,503.41 131.23,-171.8 274.81,-333.73 406.04,-505.53 197.94,-4.75 395.92,2.88 593.86,-5.9 l 18.55,-32.23 152.08,-264.18 h -4.25 c 4.5,-14.26 8.52,-28.72 11.99,-43.41 l 18.32,-1.86 12.41,-21.55 381.92,-0.48 z m -377.69,791.54 126.17,-132.99 -132.98,-126.16 -126.17,132.98 z m -4071.53,0 126.17,-132.99 -132.98,-126.16 -126.17,132.98 z m 4801.28,1814.12 126.17,-132.99 -132.98,-126.16 -126.17,132.98 z m -5510.56,0 126.17,-132.99 -132.98,-126.16 -126.17,132.98 z m 4787.64,1800.48 126.17,-132.99 -132.98,-126.16 -126.17,132.98 z m -4092,0 126.17,-132.99 -132.98,-126.16 -126.17,132.98 z"
   id="path900" />
   </g>
  </g>
 </g>
</svg>
