<?xml version="1.0" encoding="UTF-8" standalone="no"?>
<svg
   width="120"
   height="40"
   preserveAspectRatio="xMidYMid meet"
   version="1.0"
   id="svg236"
   sodipodi:docname="precious-logo-image-text_small.svg"
   inkscape:version="1.1.2 (0a00cf5339, 2022-02-04, custom)"
   xmlns:inkscape="http://www.inkscape.org/namespaces/inkscape"
   xmlns:sodipodi="http://sodipodi.sourceforge.net/DTD/sodipodi-0.dtd"
   xmlns="http://www.w3.org/2000/svg"
   xmlns:svg="http://www.w3.org/2000/svg">
  <defs
     id="defs240" />
  <sodipodi:namedview
     id="namedview238"
     pagecolor="#ffffff"
     bordercolor="#666666"
     borderopacity="1.0"
     inkscape:pageshadow="2"
     inkscape:pageopacity="0.0"
     inkscape:pagecheckerboard="0"
     showgrid="false"
     width="224px"
     inkscape:zoom="3.0292454"
     inkscape:cx="67.508561"
     inkscape:cy="5.6119586"
     inkscape:window-width="1366"
     inkscape:window-height="705"
     inkscape:window-x="-8"
     inkscape:window-y="-8"
     inkscape:window-maximized="1"
     inkscape:current-layer="svg_4"
     units="px"
     inkscape:document-units="mm" />
  <g
     class="layer"
     id="g234"
     transform="matrix(0.06458802,0,0,0.05767493,1.7679576,0.65637914)">
    <title
       id="title228">Layer 1</title>
    <g
       fill="#000000"
       id="svg_1"
       transform="matrix(0.1631911,0,0,-0.21635496,446.94304,76.687951)">
      <path
         d="m 971.47443,-1363.5787 c -49.38785,-88.5366 -75.65798,-140.5519 -75.65798,-149.4056 0,-5.5335 22.06691,-50.9085 48.33704,-100.7103 l 49.38785,-90.7501 h 106.13136 106.1313 l 26.2702,53.122 26.2701,52.0152 168.1288,3.3202 168.1289,2.2134 131.3506,-167.1129 c 72.5056,-92.9634 137.6555,-177.0732 145.0112,-189.2469 13.6604,-18.8141 0,-19.9208 -399.306,-19.9208 h -412.9665 l -28.3718,55.3354 -29.4225,55.3354 H 896.86726 793.88834 l -49.38784,-88.5366 c -26.27013,-48.6952 -48.33704,-95.1769 -48.33704,-105.1372 0,-9.9604 22.06691,-56.4421 48.33704,-105.1373 l 49.38784,-88.5366 H 896.86726 1000.897 l 29.4225,55.3354 28.3718,55.3354 h 100.8773 100.8773 l 87.2168,-112.8842 c 48.3371,-63.0823 91.4201,-119.5244 97.7249,-127.2714 6.3049,-8.8536 -5.254,-33.2012 -35.7273,-75.2561 -44.1339,-58.6555 -47.2863,-60.8689 -95.6233,-60.8689 -49.3879,0 -50.4387,1.1067 -79.8612,55.3354 l -28.3718,55.3354 H 1099.6727 992.49053 l -48.33704,-89.6433 c -26.27013,-49.8019 -48.33704,-95.1769 -48.33704,-99.6037 0,-5.5336 19.9653,-47.5884 44.13382,-92.9635 l 44.13382,-83.003 h 116.63941 117.6902 l 18.9145,44.2683 18.9145,44.2683 h 87.2168 88.2677 l 57.7943,75.2561 c 32.5749,40.9482 61.9975,74.1494 67.2515,74.1494 4.2032,0 34.6766,-33.2012 68.3023,-74.1494 l 59.8959,-75.2561 h 201.7546 201.7546 l 24.1686,-44.2683 24.1685,-44.2683 h 112.4361 113.487 l 44.1338,83.003 c 24.1686,45.3751 44.1339,87.4299 44.1339,92.9635 0,5.5335 -22.067,49.8018 -48.3371,99.6037 l -47.2862,89.6433 h -107.1822 -107.1821 l -28.3717,-55.3354 -29.4226,-55.3354 H 1918.25 1752.2228 l -126.0967,161.5793 c -69.3531,88.5366 -134.503,173.7531 -145.0111,188.1403 l -19.9653,26.561 h 414.0173 412.9664 l 28.3718,-55.3354 29.4225,-55.3354 h 104.0297 102.979 l 49.3878,88.5366 c 26.2701,48.6952 48.337,95.1769 48.337,105.1373 0,9.9603 -22.0669,56.442 -48.337,105.1372 l -49.3878,88.5366 h -102.979 -104.0297 l -29.4225,-55.3354 -28.3718,-55.3354 h -100.8773 -99.8265 l -97.7248,127.2714 -97.7249,127.2714 29.4225,39.8414 c 16.8129,22.1342 37.829,49.8019 47.2862,61.9757 12.6097,16.6006 26.2702,21.0274 67.2516,17.7073 48.337,-3.3202 52.5402,-5.5336 78.8104,-53.122 l 27.3209,-49.8018 106.1313,-3.3202 105.0806,-3.3201 49.3878,90.75 c 26.2701,49.8019 48.3371,96.2836 48.3371,102.9238 -1.0509,6.6403 -21.0162,49.8019 -45.1847,95.1769 l -45.1846,83.0031 -110.3345,3.3201 -111.3854,3.3201 -25.2193,-50.9085 -25.2194,-49.8019 h -86.166 -86.166 l -59.8959,-74.1494 c -32.575,-42.0549 -63.0483,-76.3628 -66.2007,-77.4695 -3.1525,-2.2134 -32.575,32.0945 -64.0992,74.1494 l -57.7943,76.3628 -205.9578,1.1067 h -204.907 l -23.1177,49.8019 -23.1177,49.8018 H 1101.7743 992.49053 Z m 150.26517,-147.1921 c 0,-14.3872 -8.4064,-23.2409 -23.1177,-25.4543 -17.8637,-3.3201 -24.1685,2.2134 -24.1685,17.7073 0,11.0671 3.1524,24.3476 7.3556,28.7744 13.6605,14.3872 39.9306,1.1067 39.9306,-21.0274 z m 1147.4793,15.4939 c 16.8129,-17.7074 5.2541,-43.1616 -17.8636,-43.1616 -24.1686,0 -33.6258,14.3872 -25.2194,37.628 7.3557,21.0275 26.2702,23.2409 43.083,5.5336 z M 919.98497,-2038.6704 c 7.35564,-23.2408 -4.20322,-42.0548 -24.16852,-42.0548 -10.50805,0 -21.0161,6.6402 -24.16852,14.3872 -7.35564,22.1341 4.20322,40.9481 24.16852,40.9481 10.50805,0 21.01611,-6.6402 24.16852,-13.2805 z m 1555.19183,0 c 7.3556,-23.2408 -4.2032,-42.0548 -24.1685,-42.0548 -10.5081,0 -21.0162,6.6402 -24.1686,14.3872 -7.3556,22.1341 4.2033,40.9481 24.1686,40.9481 10.508,0 21.0161,-6.6402 24.1685,-13.2805 z m -1352.3864,-541.1799 c 3.1524,-6.6403 0,-19.9208 -9.4572,-28.7744 -18.9145,-19.9208 -38.8798,-9.9604 -38.8798,19.9207 0,23.2409 35.7274,29.8811 48.337,8.8537 z m 1149.581,-8.8537 c 0,-29.8811 -19.9653,-39.8415 -38.8798,-19.9207 -18.9145,19.9207 -9.4573,40.9481 18.9145,40.9481 12.6096,0 19.9653,-7.7469 19.9653,-21.0274 z"
         fill="#d60e1d"
         id="svg_2"
         style="stroke-width:1.07839" />
    </g>
    <g
       aria-label="MD"
       transform="scale(0.8136451,1.2290371)"
       id="svg_3"
       style="font-weight:bold;font-size:339.757px;font-family:'b Biger Over';-inkscape-font-specification:'b Biger Over Bold';text-anchor:middle;fill:#d60e1d;stroke:#000000;stroke-width:0">
      <path
         d="m 1374.7763,547.57373 h 61.1563 V 297.51259 l 0.3397,-0.33976 h -74.4067 l -80.1827,115.51738 -80.1826,-115.51738 h -74.4068 v 250.4009 h 61.1562 V 385.50965 l 56.3997,80.86216 h 74.067 l 56.0599,-80.52241 z"
         id="path83" />
      <path
         d="m 1468.5494,354.93152 h 183.1291 V 489.47529 H 1526.3081 V 388.90722 h -61.1562 v 158.66651 h 61.1562 v -0.33976 h 125.3704 c 33.6359,0 61.1562,-27.52031 61.1562,-61.15625 V 358.32909 c 0,-33.63594 -27.5203,-61.15626 -61.1562,-61.15626 h -183.1291 z"
         id="path85" />
    </g>
    <g
       aria-label="Precious"
       transform="scale(0.87673447,1.1405962)"
       id="svg_4"
       style="font-weight:bold;font-size:389.333px;font-family:Sans-serif;text-anchor:middle;fill:#bfbfbf;stroke:#000000;stroke-width:0">
      <path
         d="m 186.29648,7.1559512 h -73.1946 q -11.29066,0 -23.359982,4.6719958 -11.67999,4.282663 -21.802648,12.458657 -9.733325,7.78666 -16.351986,18.298651 -6.229328,10.511991 -6.229328,22.581314 V 280.85706 H 82.733904 V 75.678561 q 0,-3.893331 2.335998,-9.343993 2.725331,-5.450662 7.786661,-10.122658 5.061329,-5.061329 12.458657,-8.175993 7.39733,-3.503997 17.51998,-3.503997 h 53.72796 q 9.73332,0 17.13065,3.503997 7.78666,3.114664 12.84799,8.175993 5.06133,4.671996 7.39733,10.122658 2.72533,5.450662 2.72533,9.343993 v 43.605299 q 0,4.28266 -2.72533,9.73332 -2.336,5.06133 -7.39733,10.12266 -5.06133,4.672 -12.84799,8.17599 -7.39733,3.11467 -17.13065,3.11467 h -70.46928 v 37.37597 h 80.2026 q 10.512,0 22.58132,-4.28267 12.06932,-4.67199 21.80265,-12.45865 10.12266,-8.176 16.74132,-18.68799 6.61866,-10.51199 6.61866,-22.58131 V 65.166569 q 0,-12.069323 -6.61866,-22.581314 Q 240.80311,32.073264 230.68045,24.286604 220.94712,16.11061 208.8778,11.827947 196.80848,7.1559512 186.29648,7.1559512 Z"
         style="font-weight:normal;font-family:'Robo Sapien';-inkscape-font-specification:'Robo Sapien'"
         id="path66" />
      <path
         d="M 288.30195,280.85706 V 127.45985 q 0,-12.06932 6.61866,-22.58131 6.61866,-10.511995 16.35199,-18.298655 10.12266,-8.175993 22.19198,-12.458656 12.06932,-4.671997 22.58131,-4.671997 h 75.91994 V 106.8252 h -66.18661 q -10.12266,0 -17.51999,3.504 -7.39732,3.11466 -12.45865,8.17599 -5.06133,4.672 -7.78666,10.12266 -2.336,5.45066 -2.336,9.34399 v 142.88522 z"
         style="font-weight:normal;font-family:'Robo Sapien';-inkscape-font-specification:'Robo Sapien'"
         id="path68" />
      <path
         d="M 581.08098,209.60912 H 560.057 v -37.37597 h 11.29066 q 9.73332,0 17.13065,-3.11467 7.39733,-3.11466 12.45866,-7.78666 5.06133,-4.67199 7.78666,-9.73332 2.72533,-5.45067 2.72533,-9.73333 v -3.89333 q 0,-4.67199 -2.72533,-10.12266 -2.336,-5.45066 -7.39733,-10.12265 -5.06133,-4.672 -12.84799,-7.78666 -7.39733,-3.11467 -17.13065,-3.11467 h -32.31464 q -10.12266,0 -17.51999,3.504 -7.39732,3.11466 -12.45865,8.17599 -5.06133,4.672 -7.78666,10.12266 -2.336,5.45066 -2.336,9.34399 v 74.36261 q 0,4.28266 2.336,9.73332 2.72533,5.06133 7.78666,10.12266 5.06133,4.672 12.45865,8.17599 7.39733,3.11467 17.51999,3.11467 h 109.79191 v 37.37597 H 529.29969 q -10.51199,0 -22.58131,-4.28267 -12.06932,-4.67199 -22.19198,-12.45865 -9.73333,-8.176 -16.35199,-18.68799 -6.61866,-10.51199 -6.61866,-22.58131 v -95.38659 q 0,-12.06932 6.61866,-22.58131 6.61866,-10.511995 16.35199,-18.298655 10.12266,-8.175993 22.19198,-12.458656 12.06932,-4.671997 22.58131,-4.671997 h 51.78129 q 10.90133,0 22.97065,4.671997 12.06932,4.282663 21.80265,12.458656 10.12266,7.78666 16.35199,18.298655 6.61866,10.51199 6.61866,22.58131 v 24.13865 q 0,12.06932 -6.61866,22.58131 -6.61866,10.51199 -16.74132,18.68799 -9.73333,7.78666 -21.80265,12.45865 -12.06932,4.28267 -22.58132,4.28267 z"
         style="font-weight:normal;font-family:'Robo Sapien';-inkscape-font-specification:'Robo Sapien'"
         id="path70" />
      <path
         d="m 720.4623,137.58251 v 74.75194 q 0,4.28266 2.336,9.73332 2.72533,5.06133 7.78666,10.12266 5.06133,4.672 12.45865,8.17599 7.39733,3.11467 17.51999,3.11467 h 84.87459 v 37.37597 h -94.60792 q -11.29065,0 -23.35998,-4.28267 -11.67999,-4.67199 -21.80265,-12.45865 -9.73332,-8.176 -16.35198,-18.68799 -6.22933,-10.51199 -6.22933,-22.58131 v -95.77592 q 0,-12.06933 6.22933,-22.58132 6.61866,-10.511988 16.35198,-18.298648 10.12266,-8.175993 21.80265,-12.458656 12.06933,-4.671997 23.35998,-4.671997 h 94.60792 V 106.43587 H 760.5636 q -10.12266,0 -17.51999,3.504 -7.39732,3.11466 -12.45865,8.17599 -5.06133,4.67199 -7.78666,10.12266 -2.336,5.45066 -2.336,9.34399 z"
         style="font-weight:normal;font-family:'Robo Sapien';-inkscape-font-specification:'Robo Sapien'"
         id="path72" />
      <path
         d="m 878.14185,25.843936 q 0,7.78666 5.84,14.015988 6.22932,6.229328 14.40532,6.229328 8.17599,0 14.01599,-6.229328 5.83999,-6.229328 5.83999,-14.015988 0,-7.786661 -5.83999,-14.015989 -5.84,-6.2293279 -14.01599,-6.2293279 -8.176,0 -14.40532,6.2293279 -5.84,6.229328 -5.84,14.015989 z m 38.9333,43.605296 H 879.69918 V 280.85706 h 37.37597 z"
         style="font-weight:normal;font-family:'Robo Sapien';-inkscape-font-specification:'Robo Sapien'"
         id="path74" />
      <path
         d="m 1070.8617,69.059899 h -51.7813 q -10.512,0 -22.58132,4.671997 -12.06932,4.282663 -22.19198,12.458656 -9.73333,7.78666 -16.35199,18.298648 -6.61866,10.51199 -6.61866,22.58132 v 95.77592 q 0,12.06932 6.61866,22.58131 6.61866,10.51199 16.35199,18.68799 10.12266,7.78666 21.80265,12.45865 12.06935,4.28267 22.97065,4.28267 h 51.7813 q 10.512,0 22.192,-4.28267 12.0693,-4.67199 22.1919,-12.45865 10.1227,-8.176 16.7414,-18.68799 6.6186,-10.51199 6.6186,-22.58131 v -95.77592 q 0,-12.06933 -6.6186,-22.58132 -6.6187,-10.511988 -16.7414,-18.298648 -9.7333,-8.175993 -21.8026,-12.458656 -12.0693,-4.671997 -22.5813,-4.671997 z m -9.7333,174.421191 h -32.3147 q -10.1226,0 -17.52,-3.11467 -7.3973,-3.50399 -12.45862,-8.17599 -5.06133,-5.06133 -7.78666,-10.12266 -2.336,-5.45066 -2.336,-9.73332 v -74.75194 q 0,-3.89333 2.336,-9.34399 2.72533,-5.45067 7.78666,-10.12266 5.06132,-5.06133 12.45862,-8.17599 7.3974,-3.504 17.52,-3.504 h 32.3147 q 9.7333,0 17.1306,3.504 7.7867,3.11466 12.848,8.17599 5.0613,4.67199 7.3973,10.12266 2.7254,5.45066 2.7254,9.34399 v 74.75194 q 0,4.28266 -2.7254,9.73332 -2.336,5.06133 -7.3973,10.12266 -5.0613,4.672 -12.848,8.17599 -7.3973,3.11467 -17.1306,3.11467 z"
         style="font-weight:normal;font-family:'Robo Sapien';-inkscape-font-specification:'Robo Sapien'"
         id="path76" />
      <path
         d="m 1292.3922,280.85706 q 10.512,0 22.5813,-4.28267 12.0693,-4.67199 21.8027,-12.45865 10.1226,-8.176 16.7413,-18.68799 6.6186,-10.51199 6.6186,-22.58131 V 69.059899 h -37.3759 V 212.33445 q 0,4.28266 -2.7254,9.73332 -2.336,5.06133 -7.3973,10.12266 -5.0613,4.672 -12.848,8.17599 -7.3973,3.11467 -17.1306,3.11467 h -32.3147 q -10.1226,0 -17.5199,-3.11467 -7.3974,-3.50399 -12.4587,-8.17599 -5.0613,-5.06133 -7.7867,-10.12266 -2.336,-5.45066 -2.336,-9.73332 V 69.059899 H 1172.867 V 222.84644 q 0,12.06932 6.6186,22.58131 6.6187,10.51199 16.352,18.68799 10.1227,7.78666 21.8027,12.45865 12.0693,4.28267 22.9706,4.28267 z"
         style="font-weight:normal;font-family:'Robo Sapien';-inkscape-font-specification:'Robo Sapien'"
         id="path78" />
      <path
         d="m 1462.1416,193.25713 q -13.6267,0 -26.0854,-3.89333 -12.0693,-3.89333 -21.4133,-10.51199 -9.344,-7.008 -14.7946,-16.35199 -5.4507,-9.34399 -5.4507,-20.24532 v -17.13065 q 0,-10.90132 5.0613,-21.02398 5.4507,-10.122658 14.4054,-17.519985 8.9546,-7.78666 20.6346,-12.458656 12.0693,-4.671997 25.3067,-4.671997 h 117.1892 V 106.8252 h -106.2879 q -9.344,0 -16.352,2.72533 -7.008,2.72533 -12.0693,7.008 -4.672,3.89333 -7.008,8.95466 -2.336,4.67199 -2.336,9.34399 0.7786,7.00799 10.1226,14.01599 9.344,7.00799 28.8107,7.00799 h 37.3759 q 14.016,0 26.0854,3.89333 12.4586,3.89333 21.4133,10.90132 9.344,7.008 14.7946,16.35199 5.4507,9.34399 5.4507,20.24532 v 18.68798 q 0,10.90133 -5.4507,21.02398 -5.4506,9.73333 -14.7946,17.51999 -9.344,7.39733 -21.8027,12.06932 -12.0693,4.28267 -25.696,4.28267 h -114.8532 v -37.37597 h 106.2879 q 9.7333,0 16.7413,-2.72533 7.3974,-2.72534 12.0694,-7.008 4.672,-4.28266 6.6186,-8.95466 2.336,-4.67199 2.336,-8.95466 0,-7.78666 -10.1226,-15.18398 -10.1227,-7.39733 -28.8107,-7.39733 z"
         style="font-weight:normal;font-family:'Robo Sapien';-inkscape-font-specification:'Robo Sapien'"
         id="path80" />
    </g>
  </g>
</svg>
