<?xml version="1.0" standalone="no"?>
<!DOCTYPE svg PUBLIC "-//W3C//DTD SVG 20010904//EN"
 "http://www.w3.org/TR/2001/REC-SVG-20010904/DTD/svg10.dtd">
<svg version="1.0" xmlns="http://www.w3.org/2000/svg"
 width="5000.000000pt" height="5000.000000pt" viewBox="0 0 5000.000000 5000.000000"
 preserveAspectRatio="xMidYMid meet">
<metadata>
Created by potrace 1.16, written by Peter Selinger 2001-2019
</metadata>
<g transform="translate(0.000000,5000.000000) scale(0.100000,-0.100000)"
fill="#000000" stroke="none">
<path d="M17380 25068 c0 -6 -11 -26 -25 -44 -14 -18 -25 -36 -25 -39 0 -4
-11 -20 -25 -37 -14 -16 -25 -40 -25 -54 0 -13 -4 -24 -9 -24 -18 0 -41 -31
-41 -55 0 -13 -9 -32 -19 -42 -10 -10 -26 -34 -35 -53 -31 -66 -49 -95 -68
-108 -10 -7 -18 -24 -18 -38 0 -13 -11 -34 -25 -46 -14 -12 -25 -32 -25 -45 0
-13 -8 -31 -19 -42 -10 -10 -25 -31 -33 -47 -9 -16 -23 -44 -33 -62 -9 -18
-28 -44 -41 -57 -21 -21 -24 -33 -24 -100 0 -71 1 -76 25 -85 18 -7 25 -17 25
-35 0 -15 11 -36 24 -48 14 -13 28 -35 31 -49 4 -15 15 -34 26 -44 10 -9 19
-22 19 -29 0 -7 9 -22 20 -35 11 -13 23 -35 27 -49 3 -14 16 -36 29 -49 13
-13 24 -33 24 -46 0 -12 11 -32 25 -44 14 -12 25 -30 25 -40 0 -11 9 -27 20
-37 11 -10 20 -24 20 -31 0 -7 11 -26 25 -42 14 -17 25 -37 25 -45 0 -26 11
-47 25 -47 14 0 25 -22 25 -50 0 -9 20 -36 45 -59 l45 -42 489 3 c465 3 490 4
510 22 12 11 21 27 21 37 0 10 8 24 18 31 9 7 32 42 50 79 18 36 41 73 52 82
11 9 20 25 20 36 0 30 11 51 26 51 7 0 18 18 24 40 6 21 16 45 23 52 7 7 22
31 33 53 l19 40 821 3 821 2 40 -62 c22 -35 59 -82 82 -106 22 -23 41 -44 41
-47 0 -3 20 -27 45 -53 25 -26 45 -51 45 -56 0 -4 14 -25 31 -45 41 -48 108
-126 139 -161 14 -16 41 -50 60 -77 36 -50 38 -53 108 -130 23 -27 70 -84 103
-128 34 -44 67 -87 75 -95 63 -67 94 -105 143 -168 31 -41 63 -85 71 -98 8
-13 21 -24 28 -24 6 0 12 -4 12 -9 0 -5 16 -27 36 -48 20 -21 44 -49 53 -63
23 -36 73 -102 96 -126 32 -35 92 -106 130 -154 20 -25 45 -55 55 -66 11 -12
20 -23 20 -25 0 -2 -910 -3 -2022 -2 -1937 3 -2023 3 -2029 21 -4 10 -14 24
-23 31 -9 7 -16 19 -16 26 0 6 -11 25 -25 41 -14 16 -25 38 -25 50 0 11 -11
30 -25 42 -14 12 -25 33 -25 46 0 14 -9 31 -19 38 -10 7 -26 29 -35 48 -27 57
-50 95 -76 128 l-26 32 -514 -2 -515 -3 -22 -40 c-13 -22 -28 -51 -35 -65 -7
-14 -23 -35 -35 -47 -13 -12 -23 -32 -23 -44 0 -12 -11 -32 -25 -45 -14 -13
-25 -34 -25 -48 0 -15 -9 -31 -20 -38 -11 -7 -20 -18 -20 -24 0 -6 -11 -28
-25 -48 -14 -20 -25 -43 -25 -50 0 -7 -11 -22 -25 -34 -14 -12 -25 -31 -25
-41 0 -30 -11 -51 -26 -51 -7 0 -17 -16 -23 -35 -5 -19 -19 -47 -30 -61 -12
-15 -21 -31 -21 -36 0 -5 -9 -18 -20 -30 -11 -12 -20 -30 -20 -40 0 -10 -7
-18 -15 -18 -12 0 -15 -17 -15 -95 0 -71 3 -95 13 -95 7 0 18 -12 25 -27 22
-49 46 -90 65 -107 9 -10 17 -26 17 -36 0 -28 11 -50 25 -50 14 0 25 -22 25
-49 0 -10 11 -28 25 -41 14 -13 25 -29 25 -36 0 -6 7 -17 15 -24 8 -7 20 -30
27 -51 6 -22 17 -39 24 -39 8 0 16 -12 20 -27 10 -48 23 -73 39 -73 9 0 15 -9
15 -24 0 -14 10 -37 23 -53 13 -15 27 -35 31 -43 4 -8 19 -37 34 -65 l27 -50
513 -3 513 -2 25 27 c14 16 34 46 45 68 39 79 53 100 71 113 10 7 18 25 18 41
0 20 8 34 25 45 15 10 25 26 25 41 0 13 11 36 25 51 14 15 25 32 25 38 0 6 13
30 28 54 l27 43 474 -1 473 -1 29 -29 c16 -15 29 -31 29 -35 0 -4 14 -20 31
-38 17 -17 42 -47 55 -66 44 -64 68 -95 109 -138 53 -55 79 -87 124 -149 45
-61 55 -74 106 -128 38 -40 58 -65 96 -122 18 -27 95 -118 125 -148 12 -12 45
-52 74 -91 52 -69 125 -156 166 -198 44 -45 42 -50 -44 -142 -11 -11 -39 -47
-63 -80 -56 -77 -56 -76 -109 -135 -68 -74 -65 -70 -177 -223 l-27 -37 -245 2
-245 3 -15 30 c-9 17 -26 47 -38 67 -13 21 -23 44 -23 53 0 8 -11 25 -25 37
-15 13 -25 32 -25 49 0 17 -9 32 -25 43 -15 10 -25 26 -25 41 0 13 -4 26 -9
30 -15 9 -70 93 -85 129 -10 25 -22 35 -46 40 -18 3 -245 6 -505 6 l-473 0
-41 -41 c-22 -23 -41 -49 -41 -59 0 -29 -11 -50 -26 -50 -7 0 -17 -16 -23 -35
-5 -19 -19 -47 -30 -61 -12 -15 -21 -32 -21 -39 0 -7 -7 -15 -14 -18 -8 -3
-20 -24 -26 -46 -6 -23 -17 -41 -24 -41 -13 0 -36 -41 -36 -66 0 -8 -9 -22
-20 -31 -11 -10 -20 -23 -20 -31 0 -7 -11 -30 -25 -50 -14 -20 -25 -40 -25
-44 0 -4 -11 -18 -25 -32 -14 -14 -25 -36 -25 -50 0 -15 -8 -30 -20 -36 -10
-6 -24 -28 -30 -49 -7 -26 -17 -41 -31 -44 -20 -5 -21 -11 -18 -86 4 -73 7
-83 32 -106 15 -14 27 -32 27 -40 0 -8 4 -15 9 -15 5 0 16 -19 26 -42 9 -24
25 -51 36 -61 10 -10 19 -29 19 -42 0 -15 10 -31 25 -41 14 -9 25 -25 25 -36
0 -11 11 -33 25 -50 14 -16 25 -35 25 -42 0 -7 9 -21 19 -30 10 -10 22 -32 25
-51 4 -21 13 -35 26 -38 14 -4 20 -14 20 -35 0 -20 8 -37 24 -49 13 -10 27
-30 31 -43 4 -14 15 -34 25 -45 10 -11 21 -35 25 -52 l7 -33 557 0 557 0 17
35 c9 20 17 44 17 55 0 10 9 21 20 25 12 4 22 19 26 40 3 18 15 41 25 51 10 9
19 21 19 26 0 5 11 26 25 46 14 20 25 44 25 54 0 9 9 19 20 23 13 4 22 20 27
48 7 32 14 43 33 48 14 4 201 7 416 8 415 1 454 5 468 49 4 10 24 37 46 60 22
23 40 44 40 46 0 3 23 29 50 58 27 29 50 56 50 59 0 11 110 143 126 152 8 4
14 15 14 23 0 8 6 17 14 20 8 3 38 39 67 80 29 41 57 74 61 74 4 0 8 7 8 15 0
8 9 19 19 25 11 5 23 19 26 30 6 20 55 30 55 11 0 -5 21 -31 48 -59 55 -59 80
-89 130 -157 39 -51 41 -54 110 -132 39 -44 63 -74 125 -157 12 -16 34 -42 50
-59 15 -16 27 -34 27 -38 0 -5 7 -9 15 -9 8 0 18 -11 21 -26 4 -17 20 -31 48
-45 41 -19 72 -19 1020 -22 955 -2 978 -2 992 -21 8 -11 14 -29 14 -39 0 -11
11 -30 25 -43 14 -13 25 -32 25 -42 0 -10 9 -27 20 -37 11 -10 20 -23 20 -30
0 -7 11 -25 25 -41 14 -16 25 -38 25 -50 0 -11 11 -30 25 -42 14 -12 25 -32
25 -44 1 -13 9 -33 19 -45 l19 -23 549 0 548 1 34 72 c19 39 45 82 58 95 12
13 23 31 23 42 0 29 11 50 26 50 7 0 17 16 23 35 5 19 19 47 30 61 12 15 21
31 21 36 0 5 8 18 19 29 10 11 21 34 25 50 3 16 12 29 20 29 15 0 26 21 26 51
0 10 11 29 25 41 14 12 25 29 25 38 0 9 11 31 25 50 14 19 25 37 25 41 0 5 11
19 25 33 22 22 25 33 25 99 0 69 -2 76 -25 91 -14 9 -25 25 -25 35 0 29 -11
51 -25 51 -14 0 -25 22 -25 49 0 10 -11 28 -25 41 -14 13 -25 28 -25 33 0 5
-8 21 -19 35 -10 15 -22 38 -26 52 -4 14 -16 31 -26 38 -11 7 -19 24 -19 38 0
14 -11 35 -25 48 -14 13 -25 32 -25 43 0 11 -11 30 -25 43 -14 13 -25 29 -25
36 0 6 -7 17 -14 24 -8 6 -20 28 -27 48 -7 20 -23 47 -35 59 -13 12 -24 32
-24 44 0 14 -17 38 -41 61 l-42 39 -498 -3 c-485 -3 -499 -4 -513 -23 -9 -11
-16 -27 -16 -36 0 -9 -9 -24 -20 -34 -11 -10 -20 -22 -20 -27 0 -5 -11 -24
-25 -42 -14 -18 -25 -43 -25 -55 0 -12 -8 -25 -17 -28 -23 -8 -33 -23 -33 -49
0 -12 -11 -33 -25 -48 -14 -15 -25 -33 -25 -40 0 -7 -9 -24 -19 -38 -11 -13
-23 -36 -26 -51 -16 -61 36 -57 -855 -55 l-813 3 -16 26 c-35 58 -74 109 -83
109 -4 0 -14 11 -20 25 -6 14 -17 25 -25 25 -7 0 -13 4 -13 9 0 6 -10 21 -22
35 -13 14 -50 62 -83 107 -33 44 -68 85 -77 90 -10 5 -18 14 -18 20 0 5 -16
25 -35 45 -19 19 -43 47 -52 62 -25 39 -72 100 -113 144 -56 62 -79 90 -119
144 -43 59 -52 69 -111 134 -53 59 -53 58 -109 135 -24 33 -52 69 -62 80 -79
85 -114 127 -144 170 -19 28 -53 72 -77 98 -109 120 -141 161 -185 228 -9 14
-26 30 -37 35 -74 34 -67 34 1991 36 1110 2 2023 1 2030 0 7 -2 15 -14 19 -25
3 -12 12 -29 19 -37 8 -8 17 -27 20 -42 4 -16 13 -28 21 -28 7 0 16 -12 20
-27 12 -55 16 -63 35 -73 10 -6 19 -21 19 -34 0 -12 11 -33 25 -46 14 -13 25
-28 25 -33 0 -5 8 -21 19 -35 10 -15 22 -38 26 -51 4 -14 22 -40 40 -58 l32
-33 514 2 514 3 11 33 c5 18 17 41 26 51 9 11 19 28 22 39 4 10 15 27 26 37
11 10 20 28 20 40 0 13 11 30 25 39 16 10 25 26 25 41 0 14 8 33 18 43 9 9 33
48 52 86 19 38 41 71 48 73 7 3 17 25 23 48 7 27 18 45 29 48 11 3 21 18 25
38 4 19 15 43 24 54 17 21 36 52 59 98 7 15 18 27 23 27 5 0 9 43 9 95 0 57
-4 95 -10 95 -5 0 -10 6 -10 14 0 8 -11 28 -25 44 -14 17 -25 32 -25 35 0 4
-11 23 -25 43 -14 20 -25 45 -25 55 0 10 -9 23 -20 29 -12 6 -20 21 -20 35 0
14 -13 38 -30 55 -16 17 -30 40 -30 50 0 11 -4 20 -9 20 -5 0 -16 16 -26 36
-9 20 -25 44 -36 55 -10 10 -19 29 -19 42 0 13 -11 33 -25 45 -14 12 -25 33
-25 46 0 14 -8 31 -18 38 -17 12 -26 27 -74 121 l-18 37 -513 0 -513 0 -32
-33 c-18 -18 -32 -39 -32 -46 0 -6 -11 -29 -25 -49 -14 -20 -25 -41 -25 -46 0
-5 -11 -19 -25 -32 -14 -13 -25 -34 -25 -48 0 -15 -8 -30 -20 -36 -10 -6 -24
-28 -30 -51 -6 -22 -18 -43 -26 -46 -7 -3 -14 -11 -14 -18 0 -6 -13 -31 -28
-54 l-29 -42 -478 0 c-323 0 -481 3 -488 10 -6 6 -17 11 -23 11 -7 0 -16 9
-19 20 -3 11 -10 20 -15 20 -4 0 -17 15 -29 33 -48 74 -61 92 -105 138 -25 27
-46 53 -46 59 0 5 -4 10 -9 10 -5 0 -24 20 -42 46 -55 73 -97 126 -142 177
-81 91 -92 105 -127 153 -19 27 -41 57 -50 66 -76 84 -109 123 -157 188 -31
41 -64 84 -75 95 -72 75 -118 133 -118 149 0 10 10 29 23 41 29 29 60 68 107
132 21 29 44 59 52 67 61 68 103 117 131 153 18 23 54 72 82 108 l50 65 242 0
c264 0 265 0 278 -59 3 -16 12 -32 20 -35 8 -3 19 -23 25 -45 6 -23 20 -45 30
-51 13 -7 20 -21 20 -40 0 -20 8 -35 24 -45 13 -9 27 -28 31 -42 3 -15 15 -38
26 -51 10 -14 19 -31 19 -38 0 -7 6 -17 13 -21 8 -4 22 -26 33 -48 16 -33 26
-41 59 -48 21 -4 249 -6 505 -5 l465 3 36 35 c22 22 39 50 43 72 4 24 13 38
26 41 13 3 20 14 20 30 0 14 11 39 25 55 14 17 25 35 25 41 0 7 9 21 20 33 10
11 22 34 25 49 4 16 13 29 20 29 17 0 35 31 35 59 0 11 9 26 20 34 11 8 23 28
26 45 3 17 15 39 25 48 11 9 19 21 19 26 0 5 11 24 25 42 14 18 25 42 25 54 0
12 8 23 20 27 11 3 23 18 26 33 12 54 15 60 34 65 18 5 20 14 20 85 0 60 -4
85 -16 96 -8 9 -19 16 -24 16 -5 0 -11 13 -15 29 -3 16 -15 37 -26 47 -10 9
-19 25 -19 35 0 10 -6 22 -14 26 -18 11 -36 47 -36 73 0 11 -8 24 -17 27 -23
9 -33 23 -33 50 0 13 -9 28 -20 35 -11 7 -20 17 -20 23 0 6 -11 27 -25 47 -14
20 -25 44 -25 53 0 8 -11 25 -25 37 -15 13 -25 32 -25 49 0 17 -9 32 -25 43
-15 10 -25 26 -25 41 0 13 -4 26 -9 29 -14 9 -91 124 -91 136 0 7 -175 10
-518 10 l-518 0 -13 -35 c-7 -19 -19 -35 -26 -35 -8 0 -17 -12 -21 -27 -12
-55 -16 -63 -35 -73 -10 -6 -19 -19 -19 -28 0 -10 -11 -33 -25 -52 -14 -19
-25 -38 -25 -43 0 -5 -9 -16 -20 -25 -11 -10 -23 -30 -26 -47 -3 -16 -14 -37
-25 -46 -12 -8 -24 -31 -28 -50 l-7 -34 -425 -5 c-385 -5 -427 -7 -452 -23
-15 -9 -27 -21 -27 -26 0 -8 -77 -108 -115 -148 -44 -46 -81 -90 -100 -117
-26 -38 -113 -145 -139 -172 -32 -33 -68 -78 -96 -119 -14 -21 -37 -51 -52
-68 -16 -16 -28 -34 -28 -38 0 -5 -11 -9 -25 -9 -15 0 -25 6 -25 14 0 7 -11
21 -25 30 -14 9 -25 23 -25 31 0 8 -6 15 -13 15 -8 0 -19 10 -25 23 -7 12 -28
42 -47 67 -20 25 -43 57 -53 72 -9 16 -23 28 -29 28 -7 0 -13 4 -13 10 0 5
-12 23 -27 39 -37 39 -67 75 -111 136 -20 27 -45 57 -54 67 -10 10 -18 23 -18
28 0 6 -7 10 -15 10 -8 0 -15 4 -15 10 0 5 -13 23 -30 40 -16 17 -30 37 -30
44 0 8 -18 23 -40 35 -40 21 -44 21 -1025 21 -928 0 -984 1 -988 18 -3 9 -8
29 -11 45 -4 15 -13 27 -20 27 -15 0 -26 21 -26 49 0 10 -11 28 -25 41 -14 13
-25 29 -25 36 0 6 -7 17 -14 24 -8 6 -20 28 -27 48 -7 20 -20 43 -29 49 -10 7
-21 29 -25 49 -4 24 -13 38 -25 41 -13 3 -22 18 -26 39 l-6 34 -524 0 c-390 0
-524 -3 -524 -12z m581 -780 c33 -9 40 -16 45 -45 3 -18 16 -40 27 -48 21 -15
22 -12 -16 -60 -4 -5 -16 -26 -25 -45 l-17 -35 -80 0 -80 0 -3 39 c-2 28 -9
40 -22 43 -39 10 -36 49 8 113 19 29 31 36 70 41 26 3 49 7 51 7 2 1 21 -3 42
-10z m5627 2 c29 0 42 -4 42 -14 0 -7 11 -25 25 -40 32 -34 34 -85 5 -93 -19
-5 -25 -17 -32 -68 -3 -18 -12 -20 -75 -23 -63 -3 -74 0 -92 19 -12 13 -21 30
-21 39 0 9 -9 25 -20 35 -11 10 -20 23 -20 29 0 7 9 19 20 29 11 9 20 28 20
42 0 20 8 30 33 40 17 8 41 13 52 10 11 -3 39 -5 63 -5z m-6591 -2527 c4 -10
15 -29 25 -42 20 -26 24 -86 7 -97 -6 -3 -17 -22 -25 -40 l-14 -34 -80 0 c-70
0 -81 2 -94 22 -9 12 -16 30 -16 40 0 9 -9 22 -20 28 -11 6 -20 17 -20 25 0 8
9 19 20 25 11 6 20 19 20 28 0 10 7 28 16 40 13 20 24 22 95 22 67 0 81 -3 86
-17z m7641 -30 c8 -24 20 -43 28 -43 21 0 17 -33 -6 -53 -11 -9 -20 -26 -20
-36 0 -39 -26 -51 -110 -51 -73 0 -79 2 -86 23 -3 12 -15 34 -25 49 -25 35
-24 51 9 109 l27 50 85 -3 85 -3 13 -42z m-6656 -2470 c10 -9 18 -24 18 -35 0
-10 11 -28 25 -40 25 -21 33 -48 16 -48 -19 0 -41 -32 -41 -60 0 -34 -17 -40
-112 -40 l-67 0 -31 55 c-32 55 -34 95 -5 95 15 0 25 22 25 54 0 33 6 36 83
36 52 0 75 -4 89 -17z m5646 -21 c2 -21 12 -38 28 -48 13 -9 24 -25 24 -36 0
-19 -17 -58 -29 -68 -3 -3 -11 -14 -17 -25 -9 -17 -23 -20 -82 -23 -83 -3
-112 8 -112 43 0 14 -9 33 -20 42 -11 10 -20 22 -20 29 0 6 9 19 20 29 11 10
20 26 20 37 0 10 9 27 20 38 18 18 31 20 93 18 l72 -3 3 -33z"/>
<path d="M27703 24925 c-108 -24 -189 -71 -279 -160 -96 -95 -148 -190 -170
-313 -11 -64 -13 -590 -14 -3159 l0 -3083 605 0 605 0 2 1965 3 1964 1080
-1892 c1013 -1775 1084 -1896 1145 -1958 181 -183 483 -219 732 -87 135 72 70
-34 1248 2037 l1075 1892 3 -1961 2 -1960 610 0 610 0 -2 3128 -3 3127 -23 65
c-64 178 -208 323 -380 382 -57 19 -87 23 -197 23 -152 0 -236 -22 -338 -87
-131 -85 -62 29 -1541 -2542 -758 -1319 -1382 -2393 -1386 -2389 -4 4 -614
1063 -1355 2353 -741 1290 -1368 2375 -1392 2412 -72 110 -169 183 -303 228
-84 28 -249 36 -337 15z"/>
<path d="M36823 24839 c-219 -37 -399 -203 -470 -434 -17 -58 -18 -170 -18
-2875 0 -2705 1 -2817 18 -2875 50 -161 157 -296 292 -367 140 -73 -8 -68
1981 -68 1966 0 1899 -2 2203 61 567 118 1110 434 1471 854 366 428 584 940
645 1519 22 208 22 1544 0 1751 -38 355 -120 644 -275 960 -254 518 -654 922
-1168 1180 -292 146 -570 231 -919 282 -107 15 -280 17 -1913 19 -996 1 -1818
-2 -1847 -7z m3527 -1209 c222 -20 389 -65 577 -155 386 -184 649 -504 763
-927 53 -196 53 -185 57 -948 5 -851 1 -912 -83 -1170 -67 -210 -172 -385
-326 -546 -207 -214 -468 -355 -794 -426 -99 -22 -102 -22 -1551 -25 l-1453
-4 0 2106 0 2105 1348 0 c827 0 1391 -4 1462 -10z"/>
</g>
</svg>
