<?xml version="1.0" standalone="no"?>
<!DOCTYPE svg PUBLIC "-//W3C//DTD SVG 20010904//EN"
 "http://www.w3.org/TR/2001/REC-SVG-20010904/DTD/svg10.dtd">
<svg version="1.0" xmlns="http://www.w3.org/2000/svg"
 width="700.000000pt" height="700.000000pt" viewBox="0 0 700.000000 700.000000"
 preserveAspectRatio="xMidYMid meet">
<metadata>
Created by potrace 1.14, written by Peter Selinger 2001-2017
</metadata>
<g transform="translate(0.000000,700.000000) scale(0.100000,-0.100000)"
fill="#000000" stroke="none">
<path d="M1236 5711 c-7 -9 -33 -51 -57 -94 -24 -43 -48 -86 -54 -95 -5 -9
-61 -106 -124 -216 l-114 -198 17 -32 c9 -17 24 -44 33 -61 18 -29 75 -129 99
-170 6 -11 56 -96 110 -190 l99 -170 355 2 354 2 18 23 c9 13 23 34 30 48 7
14 38 68 68 120 30 52 64 112 75 133 l20 37 202 0 c257 1 315 1 631 0 l257 0
85 -107 c107 -135 512 -636 519 -643 3 -3 22 -25 42 -50 20 -25 47 -56 59 -70
12 -14 36 -42 53 -64 18 -21 39 -46 48 -55 53 -56 141 -162 138 -166 -17 -17
-256 -20 -1407 -20 l-1294 0 -102 175 -101 175 -359 0 -359 0 -142 -245 c-78
-135 -158 -274 -178 -310 l-36 -65 45 -74 c24 -40 44 -75 44 -76 0 -1 58 -103
130 -225 71 -122 130 -226 130 -231 0 -5 159 -9 363 -9 l363 0 48 85 c27 47
70 123 97 168 27 45 50 86 52 91 3 9 572 16 629 8 19 -3 37 -19 61 -56 38 -56
65 -90 298 -372 86 -104 181 -216 212 -249 55 -59 66 -85 58 -143 -1 -8 -61
-87 -132 -177 -111 -139 -135 -164 -162 -168 -51 -8 -281 -7 -295 2 -11 6 -93
144 -174 291 -17 30 -34 59 -38 63 -6 7 -567 13 -706 8 -13 -1 -27 -15 -42
-43 -12 -24 -34 -65 -50 -93 -16 -27 -86 -148 -155 -267 l-126 -218 58 -97
c32 -54 113 -192 180 -308 l121 -210 358 -1 357 0 38 65 c56 96 143 225 167
246 12 11 29 21 38 23 9 2 125 5 257 7 132 1 251 3 265 4 18 1 34 15 58 49 18
26 46 63 63 82 140 159 199 232 225 282 13 24 19 27 57 23 34 -4 49 -13 82
-48 41 -44 180 -206 250 -292 22 -27 49 -60 61 -73 l21 -25 661 -2 c501 -1
665 -5 676 -14 8 -7 56 -83 106 -170 l91 -158 354 1 c222 1 358 5 364 11 5 6
50 80 99 165 49 85 126 219 170 296 45 78 82 144 82 148 0 4 -22 45 -50 92
-27 47 -50 89 -50 94 0 6 -4 10 -10 10 -5 0 -10 4 -10 9 0 5 -39 76 -86 158
-48 81 -98 168 -112 193 -13 25 -28 49 -32 54 -9 9 -702 12 -718 2 -6 -3 -28
-37 -48 -74 -21 -37 -45 -79 -54 -93 -8 -15 -37 -65 -64 -112 l-49 -86 -537
-1 -538 0 -54 62 c-30 35 -164 200 -298 368 -135 168 -247 307 -250 310 -3 3
-39 46 -80 95 -41 50 -79 95 -85 101 -5 6 -32 37 -60 68 -27 32 -69 79 -92
105 -49 53 -51 61 -20 62 12 0 33 3 47 6 27 6 1395 7 2178 3 l472 -3 77 -131
c42 -72 88 -152 102 -178 l26 -48 360 0 360 0 178 310 177 310 -178 307 -178
308 -357 2 -357 2 -23 -37 c-13 -20 -26 -44 -30 -52 -4 -8 -40 -71 -80 -140
l-74 -125 -307 -2 c-188 -1 -317 2 -334 8 -31 11 -24 4 -156 175 -86 111 -285
355 -355 434 -12 14 -34 38 -48 53 -28 32 -73 123 -73 149 0 10 24 45 54 78
30 33 94 110 143 170 100 125 71 113 273 110 95 -1 117 -4 125 -18 6 -9 24
-40 40 -69 17 -29 51 -88 78 -132 26 -44 47 -84 47 -88 0 -5 9 -19 19 -32 l18
-23 351 0 c193 0 355 3 360 6 8 5 110 179 177 301 15 28 34 57 41 66 8 8 14
19 14 22 0 4 18 37 40 73 22 36 40 68 40 70 0 3 11 21 24 42 l24 38 -60 105
c-34 57 -70 120 -81 139 -63 111 -172 299 -186 320 -10 14 -20 32 -23 41 -5
14 -47 15 -359 15 -380 -1 -391 -3 -403 -52 -4 -15 -41 -86 -83 -158 l-77
-132 -90 -1 c-50 -1 -175 -2 -277 -2 l-187 -1 -98 -122 c-54 -68 -121 -150
-148 -184 -49 -58 -98 -120 -122 -153 -10 -13 -16 -12 -50 10 -22 15 -53 39
-70 55 -28 27 -129 153 -164 204 -21 30 -79 98 -115 133 -64 63 -16 59 -722
62 -357 1 -651 3 -655 4 -3 0 -50 77 -103 169 l-97 168 -354 0 c-308 0 -356
-2 -368 -15z m4258 -564 l40 -38 -61 -61 -61 -61 -56 54 c-31 30 -56 58 -56
63 0 5 24 35 53 66 l52 56 25 -20 c13 -12 42 -38 64 -59z m-3830 16 l58 -56
-60 -60 -61 -61 -60 60 -61 59 55 58 c30 31 59 57 63 57 5 0 35 -25 66 -57z
m-607 -1748 c1 0 -25 -29 -57 -65 l-60 -64 -59 55 c-32 30 -59 58 -60 62 0 5
25 35 56 68 l57 60 60 -58 c33 -32 61 -58 63 -58z m5153 -5 c0 -3 -25 -31 -55
-64 l-56 -58 -57 53 c-31 30 -59 58 -61 62 -2 5 23 36 55 68 l58 59 58 -57
c32 -32 58 -60 58 -63z m-4561 -1627 l61 -58 -60 -61 -60 -62 -62 59 -62 59
35 36 c19 20 43 47 54 59 11 13 23 23 27 24 3 1 34 -25 67 -56z m3831 0 l60
-56 -53 -56 c-28 -31 -57 -57 -63 -59 -6 -1 -37 22 -69 52 l-58 56 54 59 c30
32 57 59 62 60 4 0 34 -25 67 -56z"/>
</g>
</svg>
