<?xml version="1.0"?>
<svg width="500" height="240" xmlns="http://www.w3.org/2000/svg" xmlns:svg="http://www.w3.org/2000/svg" preserveAspectRatio="xMidYMid meet" version="1.0">
 <g class="layer">
  <title>Layer 1</title>
  <g fill="#000000" id="svg_1" transform="matrix(0.0819241 0 0 -0.0946994 45.1984 5.82632)">
   <path d="m855.380754,-1131.440275c-47,-80 -72,-127 -72,-135c0,-5 21,-46 46,-91l47,-82l101,0l101,0l25,48l25,47l160,3l160,2l125,-151c69,-84 131,-160 138,-171c13,-17 0,-18 -380,-18l-393,0l-27,50l-28,50l-99,0l-98,0l-47,-80c-25,-44 -46,-86 -46,-95c0,-9 21,-51 46,-95l47,-80l98,0l99,0l28,50l27,50l96,0l96,0l83,-102c46,-57 87,-108 93,-115c6,-8 -5,-30 -34,-68c-42,-53 -45,-55 -91,-55c-47,0 -48,1 -76,50l-27,50l-101,0l-102,0l-46,-81c-25,-45 -46,-86 -46,-90c0,-5 19,-43 42,-84l42,-75l111,0l112,0l18,40l18,40l83,0l84,0l55,68c31,37 59,67 64,67c4,0 33,-30 65,-67l57,-68l192,0l192,0l23,-40l23,-40l107,0l108,0l42,75c23,41 42,79 42,84c0,5 -21,45 -46,90l-45,81l-102,0l-102,0l-27,-50l-28,-50l-157,0l-158,0l-120,146c-66,80 -128,157 -138,170l-19,24l394,0l393,0l27,-50l28,-50l99,0l98,0l47,80c25,44 46,86 46,95c0,9 -21,51 -46,95l-47,80l-98,0l-99,0l-28,-50l-27,-50l-96,0l-95,0l-93,115l-93,115l28,36c16,20 36,45 45,56c12,15 25,19 64,16c46,-3 50,-5 75,-48l26,-45l101,-3l100,-3l47,82c25,45 46,87 46,93c-1,6 -20,45 -43,86l-43,75l-105,3l-106,3l-24,-46l-24,-45l-82,0l-82,0l-57,-67c-31,-38 -60,-69 -63,-70c-3,-2 -31,29 -61,67l-55,69l-196,1l-195,0l-22,45l-22,45l-104,0l-104,0l-20,-32zm143,-133c0,-13 -8,-21 -22,-23c-17,-3 -23,2 -23,16c0,10 3,22 7,26c13,13 38,1 38,-19zm1092,14c16,-16 5,-39 -17,-39c-23,0 -32,13 -24,34c7,19 25,21 41,5zm-1284,-491c7,-21 -4,-38 -23,-38c-10,0 -20,6 -23,13c-7,20 4,37 23,37c10,0 20,-6 23,-12zm1480,0c7,-21 -4,-38 -23,-38c-10,0 -20,6 -23,13c-7,20 4,37 23,37c10,0 20,-6 23,-12zm-1287,-489c3,-6 0,-18 -9,-26c-18,-18 -37,-9 -37,18c0,21 34,27 46,8zm1094,-8c0,-27 -19,-36 -37,-18c-18,18 -9,37 18,37c12,0 19,-7 19,-19z" fill="#d60e1d" id="svg_2"/>
  </g>
  <text fill="#d60e1d" font-family="Sans-serif" font-size="24" font-weight="bold" id="svg_3" stroke="#000000" stroke-width="0" text-anchor="middle" transform="matrix(6.46102 0 0 6.88125 -997.895 -804.014)" x="212.179429" xml:space="preserve" y="150.374318">MD</text>
  <text fill="#bfbfbf" font-family="Sans-serif" font-size="24" font-weight="bold" id="svg_4" stroke="#000000" stroke-width="0" text-anchor="middle" transform="matrix(4.66682 0 0 4.97503 -43.5259 170.753)" x="62.574907" xml:space="preserve" y="-14.677939">Precious</text>
 </g>
</svg>