<?xml version="1.0" encoding="UTF-8" standalone="no"?>
<svg
   id="Layer_1_1_"
   version="1.1"
   viewBox="0 0 22 22"
   xml:space="preserve"
   sodipodi:docname="tool-ai.svg"
   width="22"
   height="22"
   inkscape:version="1.1.2 (0a00cf5339, 2022-02-04, custom)"
   xmlns:inkscape="http://www.inkscape.org/namespaces/inkscape"
   xmlns:sodipodi="http://sodipodi.sourceforge.net/DTD/sodipodi-0.dtd"
   xmlns="http://www.w3.org/2000/svg"
   xmlns:svg="http://www.w3.org/2000/svg"><defs
     id="defs936" /><sodipodi:namedview
     id="namedview934"
     pagecolor="#ffffff"
     bordercolor="#666666"
     borderopacity="1.0"
     inkscape:pageshadow="2"
     inkscape:pageopacity="0.0"
     inkscape:pagecheckerboard="0"
     showgrid="false"
     inkscape:zoom="7.75"
     inkscape:cx="31.935484"
     inkscape:cy="32"
     inkscape:window-width="1366"
     inkscape:window-height="705"
     inkscape:window-x="-8"
     inkscape:window-y="-8"
     inkscape:window-maximized="1"
     inkscape:current-layer="Layer_1_1_" /><g
     id="g931"
     transform="matrix(0.34310419,0,0,0.34310419,-0.14052972,0.1393809)"><g
       id="g883"><polygon
         points="19.272,12.515 23.515,8.272 27.567,10.298 29,6 35,6 36.433,10.298 40.485,8.272 44.728,12.515 42.702,16.567 47,18 47,24 42.702,25.433 44.728,29.485 40.485,33.728 36.433,31.702 35,36 29,36 27.567,31.702 23.515,33.728 19.272,29.485 21.298,25.433 17,24 17,18 21.298,16.567 "
         style="fill:#ffffff"
         id="polygon881" /></g><g
       id="g887"><rect
         height="7"
         style="fill:#000000"
         width="2"
         x="33"
         y="43"
         id="rect885" /></g><g
       id="g891"><rect
         height="2"
         style="fill:#000000"
         width="2"
         x="33"
         y="39"
         id="rect889" /></g><g
       id="g895"><rect
         height="7"
         style="fill:#000000"
         width="2"
         x="29"
         y="43"
         id="rect893" /></g><g
       id="g899"><rect
         height="2"
         style="fill:#000000"
         width="2"
         x="29"
         y="39"
         id="rect897" /></g><g
       id="g929"><path
         d="m 40,21 c 0,-4.411 -3.589,-8 -8,-8 -4.411,0 -8,3.589 -8,8 0,4.411 3.589,8 8,8 4.411,0 8,-3.589 8,-8 z m -8,6 c -3.309,0 -6,-2.691 -6,-6 0,-3.309 2.691,-6 6,-6 3.309,0 6,2.691 6,6 0,3.309 -2.691,6 -6,6 z"
         style="fill:#000000"
         id="path901" /><path
         d="m 32,17 c -2.206,0 -4,1.794 -4,4 0,2.206 1.794,4 4,4 2.206,0 4,-1.794 4,-4 0,-2.206 -1.794,-4 -4,-4 z m 0,6 c -1.103,0 -2,-0.897 -2,-2 0,-1.103 0.897,-2 2,-2 1.103,0 2,0.897 2,2 0,1.103 -0.897,2 -2,2 z"
         style="fill:#000000"
         id="path903" /><rect
         height="2"
         style="fill:#000000"
         width="2"
         x="31"
         y="9"
         id="rect905" /><rect
         height="2"
         style="fill:#000000"
         transform="matrix(0.7071,-0.7071,0.7071,0.7071,-2.2548,20.9999)"
         width="2"
         x="23.222"
         y="12.222"
         id="rect907" /><rect
         height="2"
         style="fill:#000000"
         width="2"
         x="20"
         y="20"
         id="rect909" /><rect
         height="2"
         style="fill:#000000"
         transform="matrix(0.7071,-0.7071,0.7071,0.7071,-13.255,25.5563)"
         width="2"
         x="23.222"
         y="27.778"
         id="rect911" /><rect
         height="2"
         style="fill:#000000"
         width="2"
         x="31"
         y="31"
         id="rect913" /><rect
         height="2"
         style="fill:#000000"
         transform="matrix(0.7071,-0.7071,0.7071,0.7071,-8.6985,36.5565)"
         width="2"
         x="38.778"
         y="27.778"
         id="rect915" /><rect
         height="2"
         style="fill:#000000"
         width="2"
         x="42"
         y="20"
         id="rect917" /><rect
         height="2"
         style="fill:#000000"
         transform="matrix(0.7071,-0.7071,0.7071,0.7071,2.3017,32.0001)"
         width="2"
         x="38.778"
         y="12.222"
         id="rect919" /><path
         d="M 47.123,7.022 C 42.692,2.826 36.88,0.689 30.766,1.034 19.298,1.661 10.178,11.159 10.003,22.656 9.909,28.751 12.262,34.453 16.629,38.713 20.093,42.092 22,46.441 22,50.961 V 55 h 20 v -3.933 c 0,-4.568 1.924,-8.972 5.418,-12.4 C 51.662,34.502 54,28.938 54,23 54,16.896 51.558,11.222 47.123,7.022 Z M 40,53 H 24 V 51 H 40.004 C 40.004,51.023 40,51.045 40,51.067 Z M 46.018,37.239 C 42.664,40.53 40.62,44.646 40.125,49 H 23.89 C 23.416,44.655 21.378,40.552 18.026,37.281 14.057,33.409 11.918,28.226 12.004,22.687 12.162,12.235 20.451,3.601 30.875,3.03 36.427,2.731 41.72,4.66 45.748,8.474 49.779,12.292 52,17.45 52,23 c 0,5.396 -2.125,10.453 -5.982,14.239 z"
         style="fill:#000000"
         id="path921" /><path
         d="m 32,61 c -2.757,0 -5,-1.794 -5,-4 h -2 c 0,3.309 3.141,6 7,6 3.859,0 7,-2.691 7,-6 h -2 c 0,2.206 -2.243,4 -5,4 z"
         style="fill:#000000"
         id="path923" /><polygon
         points="41.291,24.849 43.511,29.288 40.288,32.511 35.849,30.291 34.279,35 29.721,35 28.151,30.291 23.712,32.511 19.979,28.778 18.565,30.192 23.317,34.944 26.983,33.111 28.279,37 35.721,37 37.017,33.111 40.683,34.944 45.944,29.683 44.111,26.017 48,24.721 48,17.279 43.018,15.619 42.385,17.516 46,18.721 46,23.279 "
         style="fill:#000000"
         id="polygon925" /><polygon
         points="20.489,12.712 23.712,9.489 28.151,11.708 29.721,7 34.279,7 35.849,11.708 40.288,9.489 44.021,13.222 45.435,11.808 40.683,7.056 37.017,8.888 35.721,5 28.279,5 26.983,8.888 23.317,7.056 18.056,12.317 19.889,15.983 16,17.279 16,24.721 20.982,26.381 21.615,24.484 18,23.279 18,18.721 22.709,17.151 "
         style="fill:#000000"
         id="polygon927" /></g></g></svg>
